<svg xmlns="http://www.w3.org/2000/svg" height="48.55" width="240" viewBox="0 0 240 48.55"><path d="M185.294 18.165a.158.158 0 01-.093.028c-.089 0-.164-.078-.164-.168 0-.028.005-.052.014-.073l.01-.012C189.691 7.377 200.247 0 212.519 0c12.276 0 22.832 7.382 27.463 17.955l.004.009c.01.021.015.044.015.07 0 .091-.075.166-.169.166a.1788.1788 0 01-.079-.021l-.019-.009c-2.133-1.253-5.098-2.028-8.386-2.028-3.793 0-7.165 1.036-9.307 2.643l-.01.007c-.028.021-.065.037-.103.037-.038 0-.075-.016-.104-.035l-.009-.009c-2.143-1.606-5.515-2.643-9.313-2.643-3.793 0-7.164 1.036-9.307 2.643l-.009.007c-.028.021-.066.037-.104.037-.038 0-.065-.014-.094-.03l-.019-.012c-2.137-1.606-5.514-2.645-9.312-2.645-3.27 0-6.22.767-8.349 2.009z" fill="#E31B23" clip-rule="evenodd" fill-rule="evenodd"/><path d="M214.066 18.394v-.028c0-.073-.056-.133-.131-.14h-.005a12.052 12.052 0 00-1.473-.089c-.431 0-.847.021-1.249.061l-.014.002c-.07.007-.122.068-.122.143l-.005.007.005 24.483c0 1.394-1.137 2.528-2.53 2.528-1.099 0-2.034-.706-2.381-1.684l-.004-.005c-.201-.594-.758-1.024-1.422-1.024-.828 0-1.497.671-1.497 1.494 0 .141.019.278.057.407l.004.012c.726 2.2 2.802 3.795 5.243 3.795 3.045 0 5.523-2.477 5.523-5.523V18.394z" fill="#E31B23" clip-rule="evenodd" fill-rule="evenodd"/><path d="M41.817 48.251h-5.02l-3.24-10.518h-4.149l-1.164 10.518h-4.981l2.948-26.798h9.818c5.823 0 8.605 1.391 7.851 8.205-.51 4.653-2.315 6.516-5.527 7.432zm-7.328-14.765c2.344 0 3.949-.091 4.378-4.013.437-3.954-1.447-3.768-3.635-3.768h-4.51l-.859 7.78h4.626zm138.879 14.765h-5.061l-3.241-10.518h-4.105l-1.165 10.518h-4.98l2.946-26.798h9.821c5.818 0 8.605 1.391 7.848 8.205-.505 4.653-2.311 6.516-5.528 7.432zm-7.408-14.765c2.348 0 3.947-.091 4.382-4.013.436-3.954-1.37-3.768-3.638-3.768h-4.43l-.851 7.78h4.537zm-88.501 7.551l7.707-19.584h5.093L79.125 48.398h-5.164l-5.419-26.945h5.271zm32.686-15.116H99.442l-.702 6.373h8.683l-.503 4.524h-8.673l-.774 6.95h11.054l-.485 4.483H91.889l2.953-26.798h15.799zm41.579 0h-10.705l-.706 6.373h8.679l-.496 4.524h-8.675l-.772 6.95h11.052l-.482 4.483H133.47l2.946-26.798h15.799zm25.774 21.855l.706-4.392c.786.181 4.985.803 7.483.803 3.367 0 4.312-.583 4.606-3.295.275-2.486-.126-2.811-3.915-4.022-6.005-1.94-7.361-2.928-6.753-8.498.589-5.345 3.362-7.249 9.442-7.249 2.97 0 6.216.405 7.39.732l-.57 4.361c-1.403-.224-4.893-.664-7.343-.664-2.713 0-3.63.697-3.868 2.858-.28 2.527.206 2.787 3.854 3.954 5.753 1.903 7.559 2.895 6.932 8.495-.641 5.858-3.367 7.691-10.327 7.691-3.624 0-6.379-.511-7.637-.774m-127.755.475h-5.094l11.522-26.946h4.892L66.37 48.25h-5.235l-.829-4.464h-8.715zm8.009-19.923L53.339 39.58h6.186zm72.855 15.44h-11.815l2.457-22.315h-5.091l-2.948 26.798h12.678c2.853 0 4.089-1.642 4.719-4.483M.493 21.453L0 25.921h8.339L5.881 48.25h5.134l2.417-22.313h4.207c2.852 0 4.087-1.649 4.715-4.485H.493z"/></svg>